<svg xmlns="http://www.w3.org/2000/svg" viewBox="0 0 1600 1200" role="img" aria-label="Fond décoratif du club SCAF Bangui">
  <defs>
    <linearGradient id="bg" x1="0" y1="0" x2="1" y2="1">
      <stop offset="0%" stop-color="#0b6b3c"/>
      <stop offset="52%" stop-color="#1f8f54"/>
      <stop offset="100%" stop-color="#e6172b"/>
    </linearGradient>
    <linearGradient id="shield" x1="0" y1="0" x2="0" y2="1">
      <stop offset="0%" stop-color="#ffffff" stop-opacity="0.98"/>
      <stop offset="100%" stop-color="#f7f7f7" stop-opacity="0.95"/>
    </linearGradient>
    <filter id="softShadow" x="-20%" y="-20%" width="140%" height="140%">
      <feGaussianBlur in="SourceAlpha" stdDeviation="22" result="blur"/>
      <feOffset dy="18" result="offsetBlur"/>
      <feComponentTransfer>
        <feFuncA type="linear" slope="0.2"/>
      </feComponentTransfer>
      <feMerge>
        <feMergeNode/>
        <feMergeNode in="SourceGraphic"/>
      </feMerge>
    </filter>
  </defs>

  <rect width="1600" height="1200" fill="url(#bg)"/>
  <rect width="1600" height="1200" fill="#08111f" opacity="0.16"/>

  <g opacity="0.18">
    <path d="M0 260h1600M0 360h1600M0 460h1600M0 560h1600" stroke="#fff" stroke-width="2"/>
    <path d="M120 0v1200M320 0v1200M520 0v1200M720 0v1200M920 0v1200M1120 0v1200M1320 0v1200M1520 0v1200" stroke="#fff" stroke-width="2"/>
  </g>

  <circle cx="1300" cy="250" r="220" fill="#ffffff" opacity="0.08"/>
  <circle cx="250" cy="930" r="300" fill="#ffffff" opacity="0.06"/>

  <g transform="translate(790 120) scale(1.2)" opacity="0.34" filter="url(#softShadow)">
    <path d="M0 0h200v240c0 160-84 282-200 338C-116 522-200 400-200 240V0z" fill="url(#shield)"/>
    <path d="M-200 0h66v578h-66z" fill="#1f8f54"/>
    <path d="M-134 0h268v578h-268z" fill="#ffffff"/>
    <path d="M-30 0h66v578h-66z" fill="#e6172b"/>
    <text x="0" y="52" text-anchor="middle" font-family="Arial, Helvetica, sans-serif" font-size="34" font-weight="900" fill="#ffffff">S.C.A.F</text>
    <text x="0" y="84" text-anchor="middle" font-family="Arial, Helvetica, sans-serif" font-size="20" font-weight="800" fill="#ffffff">BANGUI</text>
    <circle cx="0" cy="260" r="118" fill="#f4efe3" opacity="0.98"/>
    <path d="M-52 208c34 0 56 20 56 52 0 17-6 34-16 48l-20 31h50l-26 44h-122l48-74c11-17 18-31 18-47 0-15-9-27-26-27-16 0-26 11-31 31l-44-15c11-46 46-73 113-73zm22 118c22 0 38 16 38 39 0 24-18 41-42 41s-40-17-40-40c0-24 18-40 44-40z" fill="#1b1b1b"/>
    <path d="M-35 196 8 196 8 382 -35 382z" fill="#e6172b"/>
    <path d="M-35 196 8 196 8 382 -35 382z" fill="#1f8f54" opacity="0.25"/>
  </g>

  <g opacity="0.26">
    <path d="M0 1000c260-140 420-190 660-172 150 12 270 58 440 58 186 0 328-48 500-132v446H0z" fill="#000"/>
  </g>
</svg>
